<svg class="logo" id="Layer_1" data-name="Layer 1" xmlns="http://www.w3.org/2000/svg" viewBox="0 0 426.9 89.88"><defs><style>.cls-1{fill:#1d1d1d;}.cls-2{fill:#ffcd00;}</style></defs><path class="cls-1" d="M273.57,271.45v70.24H254v-27H227.36v27H207.81V271.45h19.55v27.07H254V271.45Z" transform="translate(-207.81 -252.7)"/><path class="cls-1" d="M329.66,293.34q7,6.07,7,18.62v29.73H319.19v-6.92q-4.05,7.82-15.8,7.81a24.65,24.65,0,0,1-10.76-2.18,16,16,0,0,1-6.87-5.87,15.65,15.65,0,0,1-2.32-8.45,13.71,13.71,0,0,1,5.83-11.8q5.82-4.2,18-4.2h10.67q-.5-8.49-11.36-8.5a26.12,26.12,0,0,0-7.8,1.24,20.83,20.83,0,0,0-6.72,3.41l-6.31-12.75a35.13,35.13,0,0,1,10.81-4.59,51.19,51.19,0,0,1,12.78-1.63Q322.65,287.26,329.66,293.34Zm-15.31,35.8a8.8,8.8,0,0,0,3.56-4.64v-4.64h-8.1q-8.21,0-8.2,5.43a4.78,4.78,0,0,0,1.88,3.95,8,8,0,0,0,5.13,1.48A10.34,10.34,0,0,0,314.35,329.14Z" transform="translate(-207.81 -252.7)"/><path class="cls-1" d="M373.84,289.09a28.25,28.25,0,0,1,10.52-1.83v16.89a37.56,37.56,0,0,0-4.25-.29q-6,0-9.43,3.26t-3.4,10v24.6H348.51V288.15h17.88v6.42A17.52,17.52,0,0,1,373.84,289.09Z" transform="translate(-207.81 -252.7)"/><path class="cls-1" d="M453.92,288.15,431.8,341.69H412.45l-22-53.54h19.25l12.84,32.69,13.53-32.69Z" transform="translate(-207.81 -252.7)"/><path class="cls-1" d="M511.68,319.66h-38.9a10.87,10.87,0,0,0,4.59,6.37,15.34,15.34,0,0,0,8.54,2.22,18.62,18.62,0,0,0,6.67-1.08,19.79,19.79,0,0,0,5.67-3.56l9.88,10.27q-7.8,8.7-22.81,8.7A36.4,36.4,0,0,1,468.83,339a27,27,0,0,1-.59-48.2,33.66,33.66,0,0,1,29.62-.25,25.27,25.27,0,0,1,10.32,9.58A28.18,28.18,0,0,1,512,315C512,315.15,511.88,316.7,511.68,319.66Zm-35.5-16.59a11.14,11.14,0,0,0-3.7,6.71H494.4a11.14,11.14,0,0,0-3.7-6.71,11.9,11.9,0,0,0-14.52,0Z" transform="translate(-207.81 -252.7)"/><path class="cls-1" d="M526.89,341a34.76,34.76,0,0,1-10.47-4l5.63-12.84a31.55,31.55,0,0,0,8.69,3.61,38.79,38.79,0,0,0,10,1.33c3,0,5.18-.31,6.47-.94a2.93,2.93,0,0,0,1.92-2.71c0-1.19-.77-2-2.32-2.52a47.1,47.1,0,0,0-7.35-1.43,72.31,72.31,0,0,1-10.91-2.08,16.78,16.78,0,0,1-7.76-4.74q-3.25-3.45-3.25-9.68a14.66,14.66,0,0,1,3.06-9.14,20.39,20.39,0,0,1,8.93-6.32,38.46,38.46,0,0,1,14.07-2.32,56.91,56.91,0,0,1,11.56,1.19,33.1,33.1,0,0,1,9.57,3.36l-5.62,12.74a31.15,31.15,0,0,0-15.41-3.95,15.35,15.35,0,0,0-6.51,1c-1.39.69-2.08,1.6-2.08,2.72s.76,2.12,2.27,2.62a53.38,53.38,0,0,0,7.51,1.53,84.13,84.13,0,0,1,11,2.27,16.82,16.82,0,0,1,7.55,4.69q3.21,3.41,3.21,9.53a14.5,14.5,0,0,1-3.06,9,19.87,19.87,0,0,1-9,6.27,40.42,40.42,0,0,1-14.37,2.28A57.64,57.64,0,0,1,526.89,341Z" transform="translate(-207.81 -252.7)"/><path class="cls-1" d="M613.21,339.51a19,19,0,0,1-5.78,2.28,32.44,32.44,0,0,1-7.26.79q-10.47,0-16.09-5.14t-5.63-15.31v-18h-7.8V290.2h7.8V271.45h18.76V290.2H616v13.95H597.21v17.78a6.33,6.33,0,0,0,1.53,4.5,5.38,5.38,0,0,0,4.1,1.63,10,10,0,0,0,5.73-1.68Z" transform="translate(-207.81 -252.7)"/><polygon class="cls-2" points="408.15 0 389.4 0 389.4 18.75 408.15 18.75 408.15 37.5 426.9 37.5 426.9 18.75 426.9 0 408.15 0"/></svg>
